<svg xmlns="http://www.w3.org/2000/svg" viewBox="0 0 40 40" width="40" height="40">
  <defs>
    <linearGradient id="g" x1="0" y1="0" x2="0.6" y2="1">
      <stop offset="0%" stop-color="#00d972"/>
      <stop offset="100%" stop-color="#009e52"/>
    </linearGradient>
  </defs>
  <rect x="0" y="0" width="40" height="40" rx="10" fill="#050505" stroke="#1c1c1c" stroke-width="1"/>
  <!-- Curved L body -->
  <path d="M10 10 Q10 7.5 12.5 7.5 L15 7.5 Q17.5 7.5 17.5 10 L17.5 29.5 Q17.5 33 21 33 L31 33 Q33.5 33 33.5 35.5 L33.5 37 Q33.5 39.5 31 39.5 L18 39.5 Q8 39.5 8 29 L8 10 Q8 7.5 10 7.5 Z" fill="url(#g)"/>
  <!-- Ring -->
  <path d="M22.5 8 Q32 8 32 16.5 Q32 23.5 24 25 Q21.5 25.5 20 24.5 Q16.5 22 16.5 16.5 Q16.5 8 22.5 8 Z" fill="none" stroke="url(#g)" stroke-width="2.5" stroke-linejoin="round"/>
  <!-- Ring connector -->
  <path d="M22.5 25 Q22.5 27.5 22.5 29 Q22.5 30.5 21 30.5 L19 30.5" fill="none" stroke="url(#g)" stroke-width="2.5" stroke-linecap="round" stroke-linejoin="round"/>
</svg>
